<svg width="274" height="274" fill="none" xmlns="http://www.w3.org/2000/svg"><path fill-rule="evenodd" clip-rule="evenodd" d="M150.693 23.747c64.057 0 77.544 88.775 77.806 89.505.27.753.524 1.528.77 2.279.5 1.527 1.143 2.997 1.642 4.514.306.926.868 1.692 1.245 2.566a27.345 27.345 0 0 0 2.672 4.755 7.22 7.22 0 0 1 1.006 1.938c.166.53.713.672.95 1.14.382.758.892 1.45 1.334 2.178a.76.76 0 0 0 .604.476l-.086.722c.159.26.214-.092.381-.03.209.282.508.533.538.962.028.403.499.441.66.793.353.764 1.336 1.153 1.321 2.156.707.443 1.054 1.204 1.587 1.802.274.275.441.637.472 1.021l.005.089c-.004.383.735.297.536.818 1.13.849 1.424 2.235 2.02 3.383.958 1.842 2.061 3.622 2.711 5.639.325 1.009.957 1.964 1.308 2.986.789 2.297 1.737 4.543 2.25 6.935.211.988.643 1.93.846 2.92l.233 1.146c.348 1.718.677 3.441.896 5.182.113.393.113.81 0 1.203-.189.447.312.733.352 1.182.051.532-.162 1.036-.009 1.6.084.312 0 .812.097 1.173.315 1.174-.084 2.385.258 3.551.054.451.007.908-.138 1.338-.237 1.436.196 2.902-.236 4.304a4.64 4.64 0 0 0-.114 2.127l.054.273c.038.202.063.399-.036.535-.394.539-.293 1.174-.371 1.762l-.015.098c-.113.66.004 1.351-.196 2.022a6.014 6.014 0 0 0-.45 2.07c.1 1.206-.306 2.288-.554 3.407-.124.559-.022 1.224-.637 1.64-.313.212.426.622-.022.932l-.053.033c-.329.185-.314.485-.222.843.085.328-.488.555-.324.89.164.335.238.824.046.885-.478.157.009.678-.393.776a.144.144 0 0 0-.074.105c-.137 1.259-.948 2.293-1.149 3.551a6.064 6.064 0 0 1-.862 2.111 12.8 12.8 0 0 0-.88 1.938c-.45 1.126-1.22 2.066-1.653 3.186-.118.303-.903.201-.504.824-.458.161-.319.636-.503.932a2.928 2.928 0 0 1-.701.567 4.369 4.369 0 0 1-.946 1.803 33.32 33.32 0 0 1-2.586 3.312l-.769.861c-1.028 1.148-2.089 2.271-3.444 3.063-.348.203-.19.589-.476.798-1.661 1.227-3.191 2.618-5.081 3.547-.791.389-1.469 1.081-2.277 1.486-1.532.769-2.955 1.726-4.594 2.325l-.291.102c-1.044.347-2.071.873-3.131 1.255a29.129 29.129 0 0 1-6.766 1.758l-1.429.159c-1.271.14-2.544.27-3.828.305-.607.017-1.19-.176-1.746-.106a3.958 3.958 0 0 1-1.616-.131c-.414-.115-.764.241-1.209.049a1.234 1.234 0 0 0-1.135-.09l-.073.034c-.211.123-.627-.104-.949-.176a6.938 6.938 0 0 1-1.376-.34c-.345-.16-.785.353-1.026-.193-.437.339-30.114-6.713-57.376 7.608-2.22 1.471-4.818 2.117-7.19 3.259-1.103.532-2.342.775-3.53 1.139l-.253.08c-2.096.677-4.245 1.139-6.39 1.622a46.045 46.045 0 0 1-5.98.889c-1.446.13-2.898.191-4.34.349-.585.063-1.158-.349-1.73.005-1.286-.35-2.636.075-3.918-.321-.853.253-1.654-.06-2.438-.291-.598-.177-1.161.191-1.766-.07a3.53 3.53 0 0 0-1.787-.397c-1.029.157-1.925-.22-2.863-.42-2.178-.464-4.35-.965-6.513-1.504-.708-.178-1.504-.109-2.11-.651-.533-.475-1.373-.177-1.897-.739-.19-.204-.434.192-.722.037-.56-.301-1.282-.102-1.806-.646-.388-.402-1.12-.13-1.55-.615l-.057-.071c-.254-.353-.924.478-1.122-.307-.8-.061-1.463-.497-2.175-.796-.59-.247-1.287-.108-1.82-.622-.453-.438-1.31-.115-1.704-.772-.961-.008-1.67-.727-2.587-.917a8.026 8.026 0 0 1-1.987-.817 62.088 62.088 0 0 0-2.998-1.439 11.042 11.042 0 0 1-1.057-.564c-.191-.112-.238-.36-.511-.421-1.732-.383-3.188-1.392-4.666-2.275a17.837 17.837 0 0 1-2.413-1.502l-.253-.19c-.223-.192-.687-.287-.883-.554-.547-.743-1.366-1.107-2.108-1.553l-.123-.075a5.017 5.017 0 0 1-1.128-.908c-.063-.068-.088-.215-.155-.231-1.232-.304-1.967-1.322-2.909-2.033-.81-.611-1.519-1.356-2.316-1.979l-.304-.228c-1.867-1.335-22.297-23.816-24.612-27.696l-.663-1.11a75.48 75.48 0 0 1-1.918-3.375l-.512-.973a51.673 51.673 0 0 1-1.462-2.956l-.596-1.333c-1.189-2.668-2.352-5.35-3.344-8.104-.885-2.458-1.617-4.956-2.356-7.456a60.183 60.183 0 0 1-1.211-4.853 179.838 179.838 0 0 1-1.445-7.873c-.394-2.481-.248-4.999-.775-7.452.345-1.506-.29-3.035.104-4.539-.292-.743-.035-1.514-.007-2.247.028-.756-.142-1.548.16-2.314.139-.348-.181-.766-.008-1.191.19-.354.212-.774.06-1.145.513-.236-.099-.6.114-.936.23-.365.332-.795.289-1.224-.15-.96.403-1.846.306-2.714-.1-.886.337-1.638.336-2.433l-.006-.15c-.075-1.043.67-1.829.695-2.816.003-.086.207-.166.319-.252-.036-.222-.282-.171-.456-.344a3.98 3.98 0 0 0 .723-.828c.153-.422.261-.859.323-1.303l-.707-.913c.261-.521.17-.996.519-1.405.151-.179.067-.725.086-1.103.024-.495.661-.79.507-1.182-.118-.45-.08-.927.11-1.352.91-4.016 1.838-8.028 2.783-12.037.1-.429.013-.97.542-1.221-.578-.597.33-.805.343-1.278.074-.442.244-.862.5-1.231.36-.69.393-1.546.599-2.324.054-.55.262-1.073.6-1.51.352-.365.302-.999.567-1.511a8.123 8.123 0 0 0 .863-1.979c.06-.5.258-.972.574-1.364.28-.309.05-.95.595-1.183.153-.899.69-1.62 1.086-2.407l.073-.148a56.137 56.137 0 0 1 3.282-5.884c1.006-1.594 1.986-3.205 3.007-4.79.333-.51.686-1.02 1.051-1.505a59.395 59.395 0 0 1 4.096-5.134c1.335-1.414 2.607-2.892 4.008-4.252.745-.723 1.355-1.611 2.078-2.38 1.704-1.813 3.454-3.578 5.294-5.253a33.837 33.837 0 0 1 5.076-4.125c.496-.301.903-.743 1.38-1.076.581-.32 1.138-.68 1.667-1.079.616-.578 1.371-.947 1.993-1.483.483-.416 1.255-.18 1.6-.928.252-.544 1.195-.345 1.512-.981.87-.03 1.277-.872 2.067-1.149l.105-.032c.832-.227 1.543-.9 2.307-1.376a20.25 20.25 0 0 1 2.307-1.412c1.502-.676 2.798-1.707 4.265-2.405 1.4-.665 2.659-1.639 4.185-2.01.36-.087.294-.404.542-.54.258-.142.54-.048.774-.212.965-.63 7.413-22.863 71.471-22.863z" fill="#EDE8E3"/><path fill-rule="evenodd" clip-rule="evenodd" d="M78.435 71.404c-2.143 1.209-5.28-.333-5.632-2.768 1.367-.073 2.828-.18 3.908-1.02 1.08-.84 1.459-2.7.376-3.537a62.553 62.553 0 0 1-24.968-8.72c5.171-1.559 9.621-4.846 14.479-7.208 4.858-2.362 10.733-3.758 15.578-1.37 4.757 2.345 10.233-.646 15.197-2.514 8.632-3.246 18.53-2.974 26.97.742 6.158 2.712 16.593-1.69 23.245-2.699 10.867-1.648 21.474 5.968 32.386 4.649l-3.512 2.322a31.963 31.963 0 0 1 3.469-.128l-27.165 13 6.881 2.783c-.539 1.729-2.472 2.896-4.253 2.57l4.299 3.421a7.785 7.785 0 0 1-5.33 1.374 13.569 13.569 0 0 1 4.699 5.201 26.492 26.492 0 0 1 14.747-.552l-13.105 1.718 1.979 5.388a32.254 32.254 0 0 1 17.323.848l-16.516.42c-.128 7.305-3.764 14.753-10.149 18.302-6.385 3.55-19.143 6.706-23.369-3.629-3.235 2.123-3.006 7.227-.7 10.335 2.307 3.107 5.972 4.827 9.286 6.824 11.01 6.635 19.314 17.623 22.691 30.026 3.378 12.403 1.792 26.084-4.333 37.385 8.258 1.284 15.931 5.983 20.828 12.756 10.544-4.907 16.384-16.101 24.46-24.469 9.188-9.518 21.871-15.585 35.047-16.765 7.796-.698 16.687.805 21.234 7.176 5.911 8.28.461 21.155-8.974 24.962-7.479 3.017-15.914 1.499-23.959 2.069-16.176 1.147-30.378 10.686-43.717 19.909-.544 2.986.548 6.22 2.791 8.265a41.561 41.561 0 0 1 17.337-10.703c2.42-.76 6.048-.562 6.316 1.96.102.955-.4 1.86-.908 2.675a49.49 49.49 0 0 1-17.716 16.898c-3.798 2.127-8.042 3.776-12.389 3.532-4.346-.243-8.773-2.752-10.249-6.847-.684-1.898-.758-4.095-2.054-5.641-2.191-2.616-6.402-1.833-9.474-.347-3.073 1.486-6.348 3.507-9.645 2.625a84.586 84.586 0 0 0-25.343-2.793c-10.856.455-21.917 2.982-32.435.256-3.513-.911-7.445-2.348-10.558-.48-6.133 3.679-1.996 15.459-8.29 18.86-2.228 1.204-4.96.76-7.419.15a69.843 69.843 0 0 1-29.43-15.507c-.806-.717-1.637-1.523-1.863-2.578-.678-3.165 3.994-4.481 7.177-3.895a36.16 36.16 0 0 1 14.99 6.533c1.545 1.151 3.897-.192 4.552-2.005.655-1.813.204-3.809-.051-5.719-1.615-12.066 5.955-24.752 17.341-29.061-6.893-10.06-9.515-22.949-7.098-34.902 2.417-11.953 9.84-22.811 20.1-29.403 4.098-2.633 8.807-4.787 11.42-8.899 2.612-4.112 1.465-11.011-3.313-11.959-4.503 4.877-11.826 6.939-18.212 5.129-6.385-1.81-11.537-7.408-12.81-13.922l-12.715 4.294a30.337 30.337 0 0 1 12.885-5.765l1.344-5.824a54.174 54.174 0 0 0-23.795 3.862c4.62-3.478 10.497-5.244 16.268-4.89 5.87.359 11.837-2.513 15.217-7.325a12.225 12.225 0 0 1-5.424-3.831 9.756 9.756 0 0 1 7.138-.829m44.401 126.606c-.385.375-.799.82-.772 1.356.027.537.832.937 1.11.477 1.515-2.51 4.151-4.315 7.039-4.821 2.889-.505 5.981.297 8.259 2.144.795.644 1.504 1.414 2.412 1.885.327.169.887.174.9-.194.005-.121-.064-.231-.132-.331a13.485 13.485 0 0 0-6.847-5.181c-2.424-.805-5.233-.856-7.401.495-.787.49-1.458 1.142-2.123 1.789l-2.445 2.381zm-11.754-4.387c-3.138-.415-6.517.638-8.607 3.016-.368.419-.703.89-.83 1.434-.126.543-.007 1.172.414 1.538 1.616-2.511 4.489-4.168 7.472-4.308 2.983-.141 5.999 1.237 7.845 3.585.289.367.564.769.974.993.409.224 1.005.196 1.255-.199.298-.472-.063-1.075-.43-1.495-2.085-2.381-4.955-4.149-8.093-4.564zm22.135-3.213c-.048.531.652.861 1.156.687.504-.174.838-.638 1.175-1.05 2.806-3.431 8.147-4.465 12.03-2.328.51-.43.539-1.255.198-1.828-.341-.573-.963-.925-1.598-1.128-1.376-.439-2.869-.289-4.284-.003-3.35.678-6.733 2.266-8.494 5.194-.085.142-.168.292-.183.456zm-13.168 11.132c-1.377.095-2.724.46-4.013.953-1.781.682-3.535 1.675-4.577 3.271 1.529.433 2.995-.707 4.391-1.465 3.133-1.7 7.197-1.524 10.172.44.933.617 2.132 1.413 3.042.762-2.129-2.669-5.609-4.198-9.015-3.961zm5.655-.861c1.044-.544 1.879-1.428 2.915-1.988a5.538 5.538 0 0 1 4.699-.236c.813.34 1.532.871 2.333 1.237.801.367 1.754.557 2.552.184.089-.041.18-.096.218-.186.06-.147-.048-.305-.152-.425-1.785-2.037-4.582-3.141-7.277-2.872-2.696.269-5.219 1.904-6.566 4.254.281.37.866.247 1.278.032zm-20.911.097c.56-.318.997-.81 1.509-1.2a5.09 5.09 0 0 1 3.634-.993c1.424.166 2.709.92 3.887 1.738.345.239.696.491 1.105.586.408.095.895-.008 1.126-.359.229-.346.137-.829-.108-1.164-.244-.335-.612-.555-.97-.765-1.456-.854-2.995-1.708-4.681-1.795-2.107-.109-4.066.99-5.889 2.053-.739.431-1.588 1.085-1.431 1.926.506.398 1.259.291 1.818-.027zm9.491-8.169c.381.492 1.126-.036 1.546-.494a7.443 7.443 0 0 1 5.073-2.381 7.437 7.437 0 0 1 5.277 1.884c.359.323.738.706 1.221.719.483.013.919-.662.535-.956-2.051-1.576-4.439-2.865-7.021-3.035-2.582-.17-5.364.988-6.56 3.283-.16.308-.283.706-.071.98zm22.829-.432c.341-.144.59-.437.851-.699 1.987-1.999 5.352-2.446 7.791-1.034.61.352 1.528.742 1.882.133.296-.508-.231-1.099-.733-1.404-3.281-1.989-7.958-1.232-10.442 1.692-.254.298-.496.706-.323 1.056.165.331.633.4.974.256zm1.813.188c-.14.118-.281.25-.34.424-.166.486.424.94.936.9.511-.041.946-.37 1.41-.589 1.132-.533 2.492-.406 3.641.09.455.196.895.45 1.385.523.489.074 1.06-.088 1.283-.53-1.947-2.414-5.935-2.806-8.315-.818zm-30.782-.926c.29.136.687.11.874-.151.254-.354-.018-.838-.288-1.181-.914-1.161-1.897-2.305-3.153-3.084-1.256-.78-2.838-1.155-4.236-.677-.142.517.5.867 1.007 1.044a12.142 12.142 0 0 1 5.081 3.415c.212.241.424.498.715.634zm17.217 1.297c-2.299-1.467-5.437-1.492-7.76-.064-.404.248-.819.597-.85 1.07-.032.473.61.912.929.561 1.283-1.415 3.628-1.708 5.221-.654.781.518 1.904.448 2.615-.164.336-.035.13-.568-.155-.749zm16.726 7.934c-3.267-.221-6.307 1.701-8.678 3.96.172.399.761.293 1.16.12l8.102-3.506c.203-.269-.248-.551-.584-.574zm-31.093 1.455c.402.228.795.537 1.257.538.462 0 .92-.556.627-.913a4.93 4.93 0 0 0-3.827-1.775 4.93 4.93 0 0 0-3.771 1.891c.109.419.622.612 1.05.549.429-.062.806-.303 1.203-.475a3.945 3.945 0 0 1 3.461.185zm16.2-.307c-.036.322.328.568.652.55.323-.018.607-.207.89-.363a5.01 5.01 0 0 1 3.945-.362c.827.275 1.858.723 2.454.089.052-.363-.311-.636-.634-.808-1.159-.616-2.434-1.081-3.746-1.069-1.312.012-2.665.563-3.414 1.64a.736.736 0 0 0-.147.323zm-2.438-14.116a11.442 11.442 0 0 1 3.686 2.171c.444.391.869.823 1.408 1.066.539.244 1.239.25 1.66-.164a7.771 7.771 0 0 1-2.222-2.701c-.282-.568-1.033-.672-1.666-.703l-2.774-.135a.557.557 0 0 0-.092.466zm-12.063 3.247c.477-.446.829-1.008 1.271-1.49a5.379 5.379 0 0 1 2.564-1.555c.422-.112.978-.329.914-.761-1.197-.208-2.562-.376-3.506.389a10.299 10.299 0 0 0-3.018 4.049c.638.141 1.297-.186 1.775-.632zm-10.637-.541 2.573 1.676c.363.237.826.479 1.203.264.349-.198.403-.711.22-1.069-.182-.359-.529-.598-.863-.823l-2.094-1.41c-.585-.394-1.537-.708-1.855-.079-.275.542.307 1.109.816 1.441zm18.056 6.717c.328.325.788.677 1.204.478.191-.091.313-.278.426-.457l1.115-1.762c-.973-1.083-2.884-1.112-3.89-.059-.077.081-.152.173-.166.284-.022.176.114.328.24.453l1.071 1.063zm-15.007 8.402c.698.244 1.521.317 2.136-.093a14.253 14.253 0 0 0-3.209-2.738c-.339-.212-.722-.417-1.119-.361-.396.057-.747.508-.555.859a5.082 5.082 0 0 0 2.747 2.333zm38.262-8.56.989-1.195c.114-.137.234-.292.226-.47-.009-.226-.215-.388-.412-.499a3.76 3.76 0 0 0-2.274-.452c-.298.036-.609.117-.819.332-.21.215-.27.598-.059.811l1.435 1.455c.157.158.355.33.572.283.144-.032.249-.152.342-.265zm-34.39-8.604c.295.318.667.644 1.1.608.928-.076 1.227-1.678 2.154-1.59.249-.411-.43-.739-.91-.747l-3.726-.059c.405.636.868 1.236 1.382 1.788zm7.671 17.458 7.751-.034c-.227-.511-.833-.718-1.38-.831a11.756 11.756 0 0 0-5.44.164c-.396.107-.847.299-.931.701zm15.953-2.719-2.565.116c-.276.012-.63.092-.664.367-.015.122.046.24.106.348.226.41.466.837.857 1.096.391.258.979.283 1.283-.073.233-.273.252-.7.53-.927.179-.147.427-.176.625-.296s.324-.431.141-.572c-.086-.066-.205-.064-.313-.059zm-22.135 1.43c.228-.356.012-.861-.344-1.09-.356-.229-.8-.257-1.223-.278-.467-.023-1.082.063-1.166.523-.04.219.072.434.18.629.317.572.783 1.228 1.434 1.163.504-.05.845-.52 1.119-.947zm33.769-5.127c.384.032.728-.228.997-.503a5.224 5.224 0 0 0 1.453-3.134c-.271-.174-.603.095-.812.341l-2.097 2.48c-.248.294.076.785.459.816zm-42.762-5.855c.39.487 1.141.64 1.691.343.281-.152.519-.453.463-.768-.05-.281-.305-.47-.541-.631l-1.02-.695c-.103-.071-.223-.145-.346-.12a.408.408 0 0 0-.21.145c-.41.471-.427 1.238-.037 1.726zm30.19-5.149c.408.342 1.013-.012 1.418-.358l1.319-1.127c-.249-.238-.646-.184-.983-.114l-2.936.607 1.182.992zm15.37-4.802c.246.307.765.241 1.047-.033.283-.274.387-.679.468-1.064.02-.093.038-.193-.001-.279-.099-.219-.424-.153-.642-.052-.587.274-1.278.924-.872 1.428z" fill="#fff"/><path fill-rule="evenodd" clip-rule="evenodd" d="M67.417 151.481c2.417-11.953 10.68-21.959 20.94-28.55-5.188 7.111-21.107 18.772-15.99 31.764 8.179 20.768 39.996 24.034 38.889 24.26-18.818 3.837-45.638-18.574-43.839-27.474z" fill="#E7EAEE"/><path fill-rule="evenodd" clip-rule="evenodd" d="M127.612 47.754c-1.309.16-2.463 1.208-2.745 2.496 10.597-5.698 23.397-7.163 35.008-4.007.01 5.856-4.098 11.488-9.676 13.267l-12.094 3.859c3.19.353 6.468-.114 9.432-1.347a7.544 7.544 0 0 0 4.709 3.29l-3.718.815a8.024 8.024 0 0 0 3.127 4.126 6.06 6.06 0 0 0-3.858-.012l.832 3.022c-5.482-.76-11.339-.014-15.956 3.038-4.617 3.05-7.717 8.66-6.885 14.13.973-5.948 5.05-11.3 10.526-13.819s12.192-2.132 17.343 1l-3.494 2.588a4.744 4.744 0 0 0 4.163-.358c2.689 1.19 1.945 6.11-.976 6.451l3.863.269c.67 6.57-3.388 13.345-9.497 15.854-6.108 2.51-13.757.544-17.899-4.599-5.142 2.626-4.782 10.584-1.117 15.045 2.558 3.115 6.081 5.138 9.609 7.165 1.527.876 3.054 1.753 4.505 2.72 7.706 5.133 13.451 13.138 15.848 22.083a46.363 46.363 0 0 0-10.973 10.29 19.756 19.756 0 0 0 12.319-5.132l.714 6.907a18.63 18.63 0 0 0-9.29 6.499 15.336 15.336 0 0 0 9.454-2.141 118.474 118.474 0 0 1-5.41 23.373l-8.438-.07c2.002-5.532 4.03-11.484 2.555-17.179-1.475-5.696-8.09-10.397-13.296-7.658a39.926 39.926 0 0 0 12.873-18.757l-15.08 19.465-11.571.098c-.364-5.452-.714-11.04.836-16.28 1.55-5.24 5.419-10.145 10.751-11.34a38.14 38.14 0 0 1 1.819-.342c2.606-.446 5.354-.917 6.119-3.272-8.644-.503-17.308 5.03-20.487 13.084-2.266 5.738-1.866 12.135-1.432 18.289a73.184 73.184 0 0 0-24.103.546c-1.377-4.693-2.805-9.491-5.693-13.438-2.887-3.947-7.575-6.94-12.442-6.453 7.837 1.165 11.72 9.873 14.674 17.224 2.955 7.352 8.32 15.748 16.21 15.021 2.246-.207 2.962 3.484 1.24 4.942-1.722 1.458-4.281 1.18-6.485.698-11.355-2.485-21.956-8.316-30.135-16.574-1.593-1.608-3.133-3.367-3.869-5.507-.907-2.641-.485-5.557.296-8.238 3.989-13.696 16.263-23.08 27.927-31.291 6.276-4.418 6.051-15.365-.401-19.521-4.776 4.34-11.144 7.375-17.558 6.667-6.415-.708-12.485-5.96-12.692-12.41a14.122 14.122 0 0 0 5.745-1.8 7.808 7.808 0 0 0-5.373.073 6.307 6.307 0 0 1 .902-5.152l3.657-.39a4.944 4.944 0 0 0-2.855-1.586c2.64-4.398 8.766-5.601 13.675-4.115 4.909 1.486 8.885 5.027 12.688 8.468-3.966-8.696-14.72-11.5-24.11-13.281l4.097-2.428a9.756 9.756 0 0 0-7.138.829 12.225 12.225 0 0 0 5.424 3.83c-3.38 4.813-9.347 7.685-15.217 7.325-5.771-.353-11.648 1.413-16.268 4.89a54.174 54.174 0 0 1 23.795-3.86l-1.344 5.823a30.337 30.337 0 0 0-12.885 5.765L64.6 92.427c1.274 6.514 6.426 12.112 12.811 13.922 6.386 1.81 13.71-.252 18.212-5.129 4.778.948 5.925 7.847 3.312 11.959-2.068 3.256-5.451 5.285-8.805 7.295v.001a98.107 98.107 0 0 0-2.615 1.603c-10.26 6.592-17.682 17.45-20.099 29.403-2.417 11.953.205 24.842 7.098 34.902-11.386 4.309-18.956 16.995-17.341 29.061.037.276.078.554.119.833v.001c.244 1.65.492 3.335-.068 4.885-.655 1.813-3.007 3.156-4.553 2.005a36.16 36.16 0 0 0-14.989-6.533c-3.183-.586-7.855.73-7.177 3.895.226 1.055 1.057 1.861 1.864 2.578a69.843 69.843 0 0 0 29.429 15.507c2.46.61 5.19 1.054 7.42-.15 3.173-1.715 3.694-5.561 4.218-9.424.514-3.798 1.03-7.612 4.071-9.436 2.746-1.648 6.13-.724 9.3.142l.003.001c.423.115.842.229 1.255.337 7.541 1.954 15.361 1.208 23.185.462 3.088-.295 6.177-.589 9.25-.718a84.586 84.586 0 0 1 25.343 2.793c2.871.768 5.725-.665 8.443-2.029.404-.202.804-.403 1.202-.596 3.072-1.486 7.283-2.269 9.474.347.867 1.035 1.187 2.36 1.509 3.692v.001c.159.659.319 1.32.545 1.948 1.476 4.095 5.903 6.604 10.249 6.847 4.347.244 8.591-1.405 12.389-3.532a49.49 49.49 0 0 0 17.716-16.898c.508-.815 1.01-1.72.908-2.675-.268-2.522-3.896-2.72-6.316-1.96a41.561 41.561 0 0 0-17.337 10.703c-2.243-2.045-3.335-5.279-2.791-8.265 13.339-9.223 27.541-18.762 43.717-19.909 2.537-.179 5.112-.151 7.683-.124h.001c5.585.061 11.155.121 16.275-1.945 9.435-3.807 14.885-16.682 8.974-24.962-4.547-6.371-13.438-7.874-21.234-7.176-13.176 1.18-25.859 7.247-35.047 16.765-2.552 2.645-4.882 5.572-7.207 8.494-5.031 6.322-10.042 12.619-17.253 15.975-4.897-6.773-12.57-11.472-20.828-12.756 6.125-11.301 7.711-24.982 4.333-37.385-3.377-12.403-11.681-23.391-22.691-30.026-.598-.361-1.208-.712-1.819-1.064l-.001-.001h-.001v-.001h-.002v-.001h-.001c-2.772-1.598-5.572-3.213-7.462-5.757-2.306-3.108-2.535-8.212.7-10.335 4.302 5.904 13.331 7.179 19.716 3.629 6.384-3.549 10.02-10.998 10.149-18.301l16.516-.42a32.255 32.255 0 0 0-17.323-.849l-1.979-5.388 13.104-1.718a26.489 26.489 0 0 0-14.746.552 13.577 13.577 0 0 0-4.699-5.2 7.786 7.786 0 0 0 5.33-1.375l-4.299-3.422c1.781.328 3.714-.84 4.253-2.569l-6.882-2.784 27.166-13a31.954 31.954 0 0 0-3.469.129l3.511-2.322c-5.361.648-10.649-.862-15.931-2.369-5.467-1.56-10.927-3.118-16.454-2.28-2.171.33-4.356 1.02-6.529 1.707-4.484 1.418-8.915 2.819-13.063.992-8.44-3.716-18.338-3.988-26.97-.742-.763.288-1.539.601-2.322.918-4.31 1.743-8.85 3.58-12.876 1.596-4.844-2.388-10.72-.992-15.577 1.37-1.705.83-3.36 1.772-5.014 2.715-3.057 1.742-6.109 3.481-9.465 4.492a62.553 62.553 0 0 0 24.968 8.72c1.083.838.704 2.698-.376 3.538-1.08.84-2.541.947-3.908 1.02.352 2.435 3.49 3.977 5.632 2.768-.9.167-.968-1.295-.593-2.132l2.334-5.216c1.813.665 4.07-.403 4.704-2.227-4.49.54-9.148 1.066-13.45-.33-4.3-1.397-8.143-5.294-7.941-9.812 9.578-5.549 22.435-4.797 31.301 1.83-.684-1.998-2.367-3.626-4.386-4.244a15.247 15.247 0 0 1 8.672-4.22c-1.928 1.525-2.811 4.252-2.144 6.618l8.656-7.962a18.278 18.278 0 0 0-2.297 8.35 19.361 19.361 0 0 0 7.238-8.721l3.851.54c-2.357 1.992-3.671 5.157-3.416 8.233a15.258 15.258 0 0 0 6.325-7.955 31.439 31.439 0 0 1 10.323 3.598zm106.371 140.943c-1.936-.064-3.874-.128-5.8-.074-14.336.407-27.664 7.39-39.492 15.5l-.498.342c-2.244 1.544-4.511 3.103-7.074 4.014l-3.01-8.773c-.161-.471-.261-1.118.177-1.355a49.455 49.455 0 0 0 12.4-9.519c2.393-2.533 4.515-5.316 6.635-8.096h.001v-.001h.001v-.001l.001-.001v-.001h.001v-.001c3.004-3.939 6.003-7.871 9.759-11.076 5.997-5.118 13.547-8.048 21.123-10.233 5.606-1.617 11.481-2.885 17.248-1.997 5.767.888 11.445 4.33 13.559 9.768 1.68 4.319.858 9.414-1.73 13.259-2.587 3.844-6.789 6.461-11.291 7.558-3.916.955-7.96.821-12.01.687zm-164.95 18.585c.304.721.495 1.683-.11 2.179-.78.638-1.886-.185-2.54-.95l-5.583-6.523a27.302 27.302 0 0 0-1.789 10.943c.032.746.093 1.504.154 2.264.234 2.905.47 5.848-.875 8.367-.59 1.105-1.594 2.119-2.844 2.2-.709.046-1.399-.213-2.053-.49-1.792-.757-3.558-1.689-5.323-2.62-4.545-2.397-9.086-4.793-14.062-4.221-.68.078-1.526.413-1.5 1.097.013.306.212.569.406.806 7.175 8.762 18.395 13.011 29.255 16.219 1.777.525 3.649 1.036 5.457.637 1.81-.398 3.488-2.029 3.27-3.868-.578-4.866.947-9.946 4.109-13.69 1.262-1.494 2.858-2.824 4.773-3.222 2.353-.489 4.652.48 6.917 1.435.582.245 1.161.49 1.739.708a22.041 22.041 0 0 0 13.939.511c-1.774-.023-2.626-2.15-2.993-3.885a174.472 174.472 0 0 1-3.775-34.217c-.014-1.249-.89-2.354-1.947-3.02-.895-.564-1.916-.878-2.93-1.19l-.002-.001a32.5 32.5 0 0 1-10.776-5.575c-.384-.302-.763-.613-1.141-.924-1.167-.959-2.335-1.919-3.675-2.606-1.774-.91-3.97-1.282-5.748-.379-.396.945.32 2.043 1.239 2.5.695.345 1.473.439 2.25.533h.001c.249.03.497.06.743.098a10.53 10.53 0 0 1 3.349 1.12c1.095.587 2.132 2.135 1.156 2.904-.4.315-.961.293-1.47.256l-5.731-.421a60.382 60.382 0 0 0 5.308 10.907c.191.309.447.653.81.656 5.616.051 11.887.837 15.445 5.181.675.824 1.228 2.014.65 2.907-3.262-3.938-8.365-6.284-13.478-6.196-5.114.088-10.132 2.609-13.257 6.658a16.984 16.984 0 0 1 6.214 7.592c.381.927.311 2.442-.69 2.421l-6.018-7.367c-.269-.329-.592-.686-1.017-.699-.34-.011-.64.207-.911.415-.585.45-1.193.927-1.498 1.599-.306.671-.192 1.596.444 1.97a14.823 14.823 0 0 1 6.109 6.981zm68.599 11.529c3.864-3.223 5.124-8.531 6.162-13.454l3.802-18.043c.041-.193.088-.397.226-.537.183-.185.47-.205.73-.213 6.931-.209 14.31.451 19.893 4.564a15.525 15.525 0 0 0-5.739 4.906c-.412.582-.757 1.458-.226 1.934.199.179.476.242.743.261 1.331.095 2.546-.736 3.519-1.65.21-.197.415-.4.622-.604.749-.742 1.503-1.487 2.454-1.923 1.213-.555 2.898-.399 3.568.755a11.187 11.187 0 0 0-4.987 5.128c-.271.572-.495 1.232-.276 1.824.22.593 1.083.941 1.508.472l4.18-4.614c.202-.223.482-.468.765-.365.153.056.253.2.34.337 2.215 3.476 3.096 7.524 3.98 11.588.518 2.38 1.037 4.766 1.826 7.047.632 1.828 1.853 3.881 3.787 3.882 1.068.001 2.014-.657 2.86-1.31.904-.698 1.804-1.43 2.708-2.166 4.25-3.459 8.598-6.997 13.951-7.42.844-.067 1.927.119 2.125.942.115.478-.143.959-.399 1.379-3.979 6.513-9.948 11.648-16.541 15.492-3.376 1.969-7.078 3.659-10.986 3.689-3.907.03-8.045-1.968-9.521-5.586-.302-.738-.486-1.517-.67-2.295-.213-.9-.426-1.8-.819-2.634-1.013-2.149-3.259-3.661-5.631-3.793-2.259-.125-4.336.881-6.409 1.885a40.43 40.43 0 0 1-2.19 1.008c-4.878 2.012-10.614 1.831-15.355-.486zm-25.793-38.842c-1.455 1.241-3.411 1.736-5.318 1.876a17.424 17.424 0 0 1-9.924-2.276l1.23 4.657c.053.201.117.417.283.541.145.107.337.121.517.13l17.681.929c2.577.136 5.158.271 7.738.197a47.776 47.776 0 0 0 20.824-5.477c.369-.195.746-.403 1.012-.725.317-.383.442-.886.548-1.373a35.501 35.501 0 0 0 .456-12.556c-.147-1.023-.351-2.073-.926-2.932-.576-.86-1.611-1.488-2.627-1.294-10.405 1.981-21.027 1.369-31.648.757-4.003-.231-8.006-.461-11.997-.553-.713-.016-1.462-.02-2.088.321-.626.341-1.057 1.15-.735 1.786 1.82 3.601 5.58 5.899 9.479 6.935.28.075.567.148.857.221 2.522.642 5.299 1.348 6.215 3.696.695 1.781-.123 3.898-1.577 5.14zm28.367 30.516c-.713 2.832-2.212 5.77-4.933 6.832-.951.372-1.982.482-2.999.577a123.71 123.71 0 0 1-28.348-.629c-.559-.077-1.148-.171-1.583-.529-.53-.437-.71-1.159-.849-1.832a68.073 68.073 0 0 1-.989-6.236c-.041-.371.061-.9.433-.871 6.005.467 12.026.713 18.049.736 4.154.016 8.342-.078 12.399-.971 4.058-.892 8.014-2.636 10.98-5.545-.843 1.771-1.206 3.706-1.57 5.643-.178.947-.355 1.895-.59 2.825zm-20.285-11.76c-.385.375-.799.82-.772 1.356.027.537.832.937 1.11.477 1.515-2.51 4.151-4.315 7.039-4.821 2.889-.505 5.981.297 8.259 2.144.237.191.466.394.695.597.54.479 1.08.957 1.717 1.288.327.169.887.174.9-.194.005-.121-.064-.231-.132-.331a13.485 13.485 0 0 0-6.847-5.181c-2.424-.805-5.233-.856-7.401.495-.787.49-1.458 1.142-2.123 1.789l-2.445 2.381zm-20.36-1.371c2.089-2.378 5.468-3.431 8.606-3.016 3.138.415 6.008 2.183 8.093 4.564.367.42.728 1.023.43 1.495-.25.395-.846.423-1.255.199-.358-.196-.613-.526-.864-.851l-.065-.084-.045-.058c-1.846-2.348-4.862-3.726-7.845-3.585-2.983.14-5.856 1.797-7.472 4.308-.421-.366-.54-.995-.414-1.538.127-.544.462-1.015.83-1.434zm30.741-6.229c-.048.531.652.861 1.156.687.454-.156.769-.548 1.074-.925l.002-.003.099-.122c2.806-3.431 8.147-4.465 12.03-2.328.51-.43.539-1.255.198-1.828-.341-.573-.963-.925-1.598-1.128-1.376-.439-2.869-.289-4.284-.003-3.35.678-6.733 2.266-8.494 5.194-.085.142-.168.292-.183.456zm-17.181 12.085c1.289-.493 2.636-.858 4.013-.953 3.406-.237 6.886 1.292 9.015 3.961-.907.649-2.101-.14-3.033-.756l-.009-.006c-2.975-1.964-7.039-2.14-10.172-.44-.244.133-.491.277-.74.423-1.172.686-2.39 1.4-3.651 1.042 1.042-1.596 2.796-2.589 4.577-3.271zm9.668-1.814c.534-.278 1.014-.646 1.493-1.013.458-.351.916-.701 1.422-.975a5.538 5.538 0 0 1 4.699-.236c.437.183.847.42 1.257.658.353.205.706.41 1.076.579.801.367 1.754.557 2.552.184.089-.041.18-.096.218-.186.06-.147-.048-.305-.152-.425-1.785-2.037-4.582-3.141-7.277-2.872-2.696.269-5.219 1.904-6.566 4.254.281.37.866.247 1.278.032zm-19.952-.64c-.304.269-.607.537-.959.737-.559.318-1.312.425-1.818.027-.157-.841.692-1.495 1.431-1.926 1.823-1.063 3.782-2.162 5.889-2.053 1.686.087 3.225.941 4.681 1.795.358.21.726.43.97.765.245.335.337.818.108 1.164-.231.351-.718.454-1.126.359-.394-.092-.734-.329-1.066-.559l-.039-.027c-1.178-.818-2.463-1.572-3.887-1.738a5.09 5.09 0 0 0-3.634.993c-.19.145-.37.304-.55.463zm8.532-7.432c.381.492 1.126-.036 1.546-.494a7.443 7.443 0 0 1 5.073-2.381 7.437 7.437 0 0 1 5.362 1.961l.003.002c.333.304.689.628 1.133.64.483.013.919-.662.535-.956-2.051-1.576-4.439-2.865-7.021-3.035-2.582-.17-5.364.988-6.56 3.283-.16.308-.283.706-.071.98zm23.565-1.013c-.222.228-.446.459-.736.581-.341.144-.809.075-.974-.256-.173-.35.069-.758.323-1.056 2.484-2.924 7.161-3.681 10.442-1.692.502.305 1.029.896.733 1.404-.354.609-1.272.219-1.882-.133-2.439-1.412-5.804-.965-7.791 1.034l-.115.118zm1.077.769c-.14.118-.281.25-.34.424-.166.486.424.94.936.9.37-.03.7-.21 1.03-.391.126-.068.252-.137.38-.198 1.132-.533 2.492-.406 3.641.09.057.024.114.05.171.076l.079.036.074.035h.001c.344.16.687.32 1.06.376.489.074 1.06-.088 1.283-.53-1.947-2.414-5.935-2.806-8.315-.818zm-29.908-1.077c-.187.261-.584.287-.874.151-.27-.127-.472-.357-.67-.582l-.045-.052a12.142 12.142 0 0 0-5.081-3.415c-.507-.177-1.15-.527-1.007-1.044 1.398-.478 2.98-.103 4.236.676 1.256.78 2.239 1.924 3.153 3.085.27.343.542.827.288 1.181zm16.343 1.448c-2.299-1.467-5.437-1.492-7.76-.064-.404.248-.819.597-.85 1.07-.032.473.61.912.929.561 1.283-1.415 3.628-1.708 5.221-.654.781.518 1.904.448 2.615-.164.336-.035.13-.568-.155-.749zm8.048 11.894c2.371-2.259 5.411-4.181 8.678-3.96.336.023.787.305.584.574l-8.102 3.506c-.399.173-.988.279-1.16-.12zm-22.415-2.505c.08.045.159.094.239.142.321.196.648.396 1.018.396.462 0 .92-.556.627-.913a4.93 4.93 0 0 0-3.827-1.775 4.93 4.93 0 0 0-3.771 1.891c.109.419.622.612 1.05.549.309-.045.591-.183.874-.321.109-.053.218-.106.329-.154a3.945 3.945 0 0 1 3.461.185zm16.852.243c-.324.018-.688-.228-.652-.55a.736.736 0 0 1 .147-.323c.749-1.077 2.102-1.628 3.414-1.64 1.312-.012 2.587.453 3.746 1.069.323.172.686.445.634.808-.537.571-1.426.264-2.201-.003l-.122-.042-.131-.044a5.01 5.01 0 0 0-3.945.362l-.046.026-.077.043c-.243.138-.491.279-.767.294zm-3.09-14.666a11.442 11.442 0 0 1 3.91 2.372c.367.33.736.663 1.184.865.539.244 1.239.25 1.66-.164a7.771 7.771 0 0 1-2.222-2.701c-.282-.568-1.033-.672-1.666-.703l-2.774-.135a.557.557 0 0 0-.092.466zm-11.308 2.38c-.237.303-.475.605-.755.867-.478.446-1.137.773-1.775.632a10.299 10.299 0 0 1 3.018-4.049c.944-.765 2.309-.597 3.506-.389.064.432-.492.649-.914.761a5.379 5.379 0 0 0-2.564 1.555c-.182.199-.349.411-.516.623zm-11.392.326 2.573 1.676c.363.237.826.479 1.203.264.349-.198.403-.711.22-1.069-.182-.359-.529-.598-.863-.823l-2.094-1.41c-.585-.394-1.537-.708-1.855-.079-.275.542.307 1.109.816 1.441zm19.26 7.195c-.416.199-.876-.153-1.204-.478l-1.071-1.063c-.126-.125-.262-.277-.24-.453.014-.111.089-.203.166-.284 1.006-1.053 2.917-1.024 3.89.059l-1.115 1.762c-.113.179-.235.366-.426.457zm-16.211 7.924c.698.244 1.521.317 2.136-.093a14.253 14.253 0 0 0-3.209-2.738c-.339-.212-.722-.417-1.119-.361-.396.057-.747.508-.555.859a5.082 5.082 0 0 0 2.747 2.333zm39.251-9.755-.989 1.195c-.093.113-.198.233-.342.265-.217.047-.415-.125-.572-.283l-1.435-1.455c-.211-.213-.151-.596.059-.811.21-.215.521-.296.819-.332a3.76 3.76 0 0 1 2.274.452c.197.111.403.273.412.499.008.178-.112.333-.226.47zm-35.379-7.409c.295.318.667.644 1.1.608.448-.037.75-.43 1.046-.816.318-.414.629-.82 1.108-.774.249-.411-.43-.739-.91-.747l-3.726-.059c.405.636.868 1.236 1.382 1.788zm15.422 17.424-7.751.034c.084-.402.535-.594.931-.701a11.756 11.756 0 0 1 5.44-.164c.547.113 1.153.32 1.38.831zm8.202-2.685-2.565.116c-.276.012-.63.092-.664.367-.015.122.046.24.106.348.226.41.466.837.857 1.096.391.258.979.283 1.283-.073.105-.123.166-.276.227-.429.075-.187.149-.373.303-.498.101-.083.225-.129.349-.174.095-.035.19-.07.276-.122.198-.12.324-.431.141-.572-.086-.066-.205-.064-.313-.059zm-22.479.34c.356.229.572.734.344 1.09-.274.427-.615.897-1.119.947-.651.065-1.117-.591-1.434-1.163-.108-.195-.22-.41-.18-.629.084-.46.699-.546 1.166-.523.423.021.867.049 1.223.278zm34.113-4.037c.384.032.728-.228.997-.503a5.224 5.224 0 0 0 1.453-3.134c-.271-.174-.603.095-.812.341l-2.097 2.48c-.248.294.076.785.459.816zm-41.071-5.512c-.55.297-1.301.144-1.691-.343-.39-.488-.373-1.255.037-1.726a.408.408 0 0 1 .21-.145c.123-.025.243.049.347.12l1.019.695c.236.16.491.35.541.631.056.315-.182.616-.463.768zm28.499-5.492c.408.342 1.013-.012 1.418-.358l1.319-1.127c-.249-.238-.646-.184-.983-.114l-2.936.607 1.182.992zm-59.36-25.826c-.3-.266-.376-.702-.385-1.103-.01-.453.043-.907.157-1.345l1.946 2.534c.116.151.212.411.04.494-.243-.163-.542-.21-.84-.256-.336-.052-.67-.103-.918-.324zm74.73 21.024c.246.307.765.241 1.047-.033.283-.274.387-.679.468-1.064.02-.093.038-.193-.001-.279-.099-.219-.424-.153-.642-.052-.587.274-1.278.924-.872 1.428zM122.094 72.297c.239-.595.793-.996 1.339-1.332a16.307 16.307 0 0 1 5.375-2.1c.454-.088.995-.132 1.31.207.355.38.177 1.04-.216 1.38-.351.304-.812.429-1.264.55l-.165.046a11.336 11.336 0 0 0-4.161 2.162c-.467.385-1.021.838-1.605.676-.617-.172-.851-.994-.613-1.589zm-34.132.14c-.44-.24-.738-.834-.464-1.254.16-.244.457-.355.74-.427 2.287-.58 4.656.445 6.725 1.58.466.256.945.534 1.24.977.293.443.336 1.1-.047 1.467-.642.616-1.658-.017-2.382-.534a8.461 8.461 0 0 0-4.555-1.558c-.435-.023-.877-.047-1.257-.252zm23.983 32.8-1.505-4.292a7.497 7.497 0 0 0-2.795 3.98c-.411-.334-.426-.9-.441-1.455-.005-.166-.009-.331-.024-.489a2.886 2.886 0 0 0-1.51-2.244 2.886 2.886 0 0 0-2.704.044c.217.475.729.626 1.255.781.35.103.706.208.987.412.594.429.764 1.238.774 1.971.002.184-.003.369-.008.554-.014.553-.028 1.108.145 1.629.056.168.135.336.271.449.386.321.971.055 1.362-.261a6.626 6.626 0 0 0 1.994-2.711c.368.368.504.884.638 1.395.04.151.079.301.125.446.199.642.675 1.328 1.347 1.297.447-.02.808-.357 1.125-.674l1.82-1.819c.22-.219.458-.498.387-.8-.068-.289-.411-.445-.706-.403-.295.042-.547.227-.778.416a11.896 11.896 0 0 0-1.759 1.774zm-4.159-17.216c.097-.787.151-1.703-.427-2.246a16.903 16.903 0 0 1-2.801-3.424c-.339-.549-.658-1.19-.496-1.814.244-.943 1.39-1.284 2.357-1.402a23.232 23.232 0 0 1 4.667-.095c.668.054 1.375.154 1.886.587.511.433.696 1.311.203 1.764-2.418 2.222-3.833 5.495-3.796 8.778.896.582 1.807 1.17 2.828 1.486 1.021.314 2.185.325 3.106-.217.388-.228.713-.54 1.039-.853.225-.216.451-.432.697-.621.604-.463 1.468-.75 2.115-.35l-2.461 2.266c-.981.903-2.198 1.874-3.496 1.57-.43-.1-.808-.333-1.186-.566-.226-.14-.452-.278-.689-.39-1.271-.598-2.762-.375-4.136-.08l-.251.054c-1.296.281-2.637.572-3.91.223-1.354-.372-2.542-1.78-2.118-3.119a4.786 4.786 0 0 0 3.848 2.05c.581.005 1.179-.106 1.66-.431.984-.666 1.216-1.991 1.361-3.17z" fill="#00160A"/></svg>