<svg width="274" height="274" fill="none" xmlns="http://www.w3.org/2000/svg"><path fill-rule="evenodd" clip-rule="evenodd" d="M155.664 227.159c26.461 0 49.682-19.683 36.641-46.418-13.041-26.734 35.414-25.871 49.648-44.348 17.358-22.534 12.331-118.185-99.103-59.871-17.85 9.34-63.694-9.61-78.9-.207-17.9 11.068-43.084 33.733-17.9 56.95 12.405 11.436-32.07 41.119-12.591 67.707 19.007 25.944 32.33 1.212 61.268 6.504 28.937 5.291 41.285 19.683 60.937 19.683z" fill="#64FCD9"/><path d="M124.952 180.648s6.093-2.866 8.367-4.86c2.275-1.993 5.102-6.947 5.102-6.947s31.062 22.432 51.316 19.232c4.666-.737 13.759-3.839 14.339-9.304 1.583-14.923-20.324-18.737-15.539-26.305 2.921-4.619 11.995 2.256 11.995 2.256l37.636 18.512s-13.002 32.051-44.555 33.335c-38.815 1.58-68.661-25.919-68.661-25.919z" fill="#fff"/><path fill-rule="evenodd" clip-rule="evenodd" d="M95.113 55.13c-.353-.138-2.25-2.46-4.659-2.884-1.094-.192-.101 1.202-1.305 1.214-3.588.038-9.417-.636-10.497 0-.803.472.965 2.12 0 2.195-9.105.714-22.995 9.805-26.008 14.215-.96 1.403 6.797-.978 5.561-.284-1.387.779-2.925 5.878-3.845 9.817-.637 2.712-1.038 6.203-1.18 10-.117 3.278-.07 3.82.402 5.613.542 2.004.967 2.594 1.698 2.31.26-.093.377-.447.377-1.108 0-.518.283-2.075.637-3.467l.613-2.5.26 1.038c.33 1.203 2.264 4.93 4.009 7.642.094.144.499-.04.864-.922.333-.805.198-2.09.763-3.467 1.288-3.137 3.816-7.216 6.744-10.48 4.327-4.826 5.763-10.41 9.819-14.892 7.569-8.366 17.069-13.52 15.747-14.04z" fill="#fff"/><path fill-rule="evenodd" clip-rule="evenodd" d="M58.313 70.724c-1.214.977-3.017 8.897-3.048 9.029-.636 2.712-1.25 12.13-.623 13.914.628 1.783 2.384-4.645 2.384-4.645s2.656 6.895 5.002 8.786c.1.08-2.789-8.531-3.715-13.559-1.223-6.636.69-14.08 0-13.525z" fill="#E7EAEE"/><path fill-rule="evenodd" clip-rule="evenodd" d="M103.57 209.428c2.265-.495 6.085-2.22 7.547-2.81 1.463-.59 5.92-6.883 7.524-13.982 1.155-5.236 1.745-12.688 1.085-13.938-.098-.178-.455-3.567.495-2.46 2.111 2.46 4.617 6.321 12.523-.598 2.153-1.885 5.007-4.317 4.256-6.467-2.103-6.017-11.218-18.131-12.607-19.049-1.662-1.097-10.059-.165-22.556-3.853-14.172-4.183-20.074-16.501-25.62-14.898-4.485 1.297-15.231 9.266-17.928 14.312-12.733 23.824 2.697 40.518 6.21 45.312l3.412 1.474.118 3.042.165 1.911c.307 3.655.425 3.985 2.076 5.212 4.127 3.136 12.263 6.061 19.622 7.098 3.42.472 10.848.307 13.678-.306z" fill="#fff"/><path fill-rule="evenodd" clip-rule="evenodd" d="m69.253 194.4.165 1.91c.307 3.655.425 3.986 2.076 5.212 2.434 1.85 6.264 3.627 10.507 4.986 2.949.944 6.097 1.687 9.115 2.113 3.42.471 10.848.306 13.678-.307 1.399-.303-10.107-9.343-16.886-6.792-5.206 1.959-17.475-12.983-12.486-16.887 5.596-4.379-4.659-21.65-4.99-25.4-.33-3.75-1.63-4.646-1.668-4.514-.037.131-.037.58.065 1.661.44 4.659.424 38.018.424 38.018z" fill="#E7EAEE"/><path fill-rule="evenodd" clip-rule="evenodd" d="M68.024 158.164a.914.914 0 0 1 1.071.722c1.78 9.145 9.31 15.336 22.773 18.573 13.543 3.257 22.767 3.081 27.628-.395.41-.293.104 2.22-.196 2.412-3.17 2.033-13.949 5.067-26.811 2.325-16.446-3.505-24.168-17.334-25.187-22.566a.914.914 0 0 1 .722-1.071zM61.166 141.665c.438-.25 16.773 18.471 39.189 22.708 22.417 4.238 27.845 1.543 28.717-4.237a.914.914 0 1 1 1.806.273c-1.105 7.325-11.478 9.067-30.83 5.765-19.109-3.261-32.21-11.008-39.221-23.262a.914.914 0 0 1 .34-1.247z" fill="#FFB61D"/><path fill-rule="evenodd" clip-rule="evenodd" d="M155.253 140.627c-.613-.212-1.274-.684-1.698-1.226l-.708-.873 2.5-2.476c3.844-3.773 6.792-7.641 9.34-12.24.849-1.533 2.995-6.651 2.995-7.146 0-.165.259-.826.566-1.51.471-.99.825-1.367 1.839-1.933 1.203-.708 2.571-.944 3.161-.543 1.132.755 1.132 3.137 0 7.24-1.25 4.505-2.925 7.736-6.392 12.382-.542.708-1.556 2.099-2.287 3.066-1.958 2.594-3.231 3.844-4.953 4.811-1.698.944-2.689 1.062-4.363.448zm16.933-2.122 1.698.754c.353.163 4.237 2.029 8.903 4.271 7.522 3.615 17.076 8.205 17.134 8.205.095 0 .537-1.023.637-2.216.236-2.571 1.109-6.062 2.123-8.491.471-1.085.849-2.44.849-2.558 0-.054-.384-.209-1.011-.462a50.521 50.521 0 0 1-3.046-1.319c-5.943-2.854-17.57-8.679-19.009-9.552-1.415-.825-1.698-.896-1.698-.354 0 .708-1.438 3.986-2.547 5.755a78.01 78.01 0 0 1-2.57 3.868l-1.463 2.099zm27.334 8.985c.677.392-.495.967-.778 1.062-1.666.141-3.628-.172-5.236-1.109-.84-.596-7.458-4.272-11.848-6.711-2.007-1.115-3.548-1.971-3.859-2.156-.99-.59-1.934-1.227-2.099-1.416-.495-.636-.023-.919 1.368-.801.837.071 20.992 10.285 22.452 11.131zm-95.869 61.744c1.819-.398 4.643-1.59 6.441-2.349h.001c.439-.186.817-.345 1.105-.461 1.462-.59 5.919-6.883 7.523-13.982 1.156-5.236 1.745-12.689 1.085-13.939-.398-.723 1.967 1.705 3.729 3.514l.003.003.007.007c.53.544 1.005 1.031 1.332 1.358 10.282 10.212 25.588 18.42 41.484 22.264 7.924 1.934 13.561 2.618 21.131 2.618 12.712 0 22.736-2.5 31.839-7.995.432-.261.838-.501 1.224-.73 3.173-1.879 5.064-2.998 10.238-8.822 5.804-6.533 10.967-21.697 12.688-26.933.755-2.358 2.594-11.739 2.594-14.08 0-2.771-.966-4.08-2.287-5.424-2.335-2.288-5.495-3.113-8.113-2.123l-1.227.472-.377-1.25c-.542-1.887-1.674-3.396-3.42-4.528-2.594-1.722-2.971-1.84-5.306-1.84-1.816 0-2.311.095-3.467.637l-1.344.613-.283-.849c-.543-1.745-2.362-4.178-3.774-4.882-1.252-.624-3.419-.681-4.929-.401-3.302.614-5.66 2.147-6.627 4.293-.283.66-.637 1.179-.778 1.179-.118 0-4.764-1.298-10.306-3.75-.935-.416-1.814-.805-2.638-1.17-9.953-4.412-12.11-5.368-11.914-6.566.165-1.014.118-1.58-.165-2.452-.495-1.463-1.061-1.863-2.665-1.863-1.273 0-1.273 0-1.132-.637.755-3.609.731-5.684-.071-7.005-.542-.872-1.179-1.226-2.641-1.438-.849-.118-1.25-.048-2.193.471-.637.331-1.18.566-1.227.519-.047-.047.118-1.344.377-2.877 1.934-11.344.44-21.118-4.489-31.495l-.164-.351c-1.499-3.217-7.524-16.153-24.756-22.68-.78-.296-1.518-.582-2.227-.856-5.87-2.272-9.772-3.783-19.187-3.767-10.553.018-14.127 1.51-21.085 4.693-.966.448-1.816.708-1.886.613-.071-.118-.52-.4-.967-.636-.448-.236-1.415-.826-2.123-1.298-2.028-1.367-3.278-1.933-3.915-1.792-.73.189-.73.802 0 1.085.307.118.66.519.802.92.307.849.66.943.873.236.094-.26.236-.449.306-.401l.254.119c.345.162.988.463 1.68.8.967.472 2.028.967 2.311 1.085.52.189.354.33-1.886 1.651-8.75 5.142-15.872 13.136-19.858 22.24-.613 1.368-1.156 2.217-1.722 2.689-1.438 1.202-4.269 4.622-4.929 5.966-.354.731-1.108 1.864-1.698 2.524-.566.66-1.18 1.51-1.391 1.863-.189.377-.378.637-.449.59-.047-.071.024-1.227.19-2.571.353-3.137.353-3.962.07-4.033-.425-.118-1.038 1.533-1.297 3.585-.189 1.25-.236 3.136-.118 5.07l.141 3.066-1.674-2.712a421.753 421.753 0 0 1-1.548-2.46v-.001c-.256-.41-.445-.712-.528-.84-.613-.897-.966-2.241-.707-2.69.142-.259.118-.377-.118-.377-.495 0-1.462 1.58-2.099 3.397-.306.849-.613 1.556-.707 1.556-.354 0-.19-8.443.188-11.155.779-5.354 2.83-11.957 3.75-11.957.189 0 .354-.095.354-.236 0-.425-.613-.26-1.109.283-1.108 1.203-2.57 4.905-3.49 8.844-.637 2.712-1.038 6.203-1.18 10-.117 3.278-.07 3.82.402 5.613.542 2.004.967 2.594 1.698 2.31.26-.093.377-.447.377-1.108 0-.518.283-2.075.637-3.467l.613-2.5.26 1.038c.33 1.203 2.264 4.93 4.009 7.642 1.203 1.839 1.226 1.957 1.627 4.834.212 1.628.873 5.586 2.406 11.674 1.354 5.38 8.969 10.717 10.87 12.049.25.176.402.282.427.31.235.259.566.401.754.33.212-.071.33.023.33.283 0 .236.165.542.354.684.236.165.401.802.448 1.91.118 2.217 1.769 6.462 3.043 7.854.825.896 2.547 1.273 4.457.943 1.25-.189 1.604-.33 1.486-.613-.071-.189.377.047.99.519 7.17 5.471 14.434 8.749 22.594 10.164 3.16.543 8.396.849 11.25.637 1.829-.12 2.332-.153 2.426.027.035.068.012.167-.021.303-.165.661.047 1.062 3.514 6.934 2.76 4.646 2.995 4.953 6.061 8.089 6.51 6.722 13.608 11.934 21.651 15.967 7.57 3.773 19.657 6.91 30.706 7.901 11.049.99 18.985-9.151 18.962-11.745-.047-3.562-.543-5.896-1.746-8.16-1.179-2.194-1.957-2.949-5.495-5.307-3.938-2.618-6.367-4.764-7.971-7.052-1.014-1.438-1.392-3.066-1.392-3.938 0-.566.732-1.84 1.816-2.099.991-.26 1.18-.236 2.288.306.66.307 2.382 1.109 3.797 1.793 1.439.66 2.83 1.321 3.113 1.462.835.232 1.187 1.865 1.379 2.75.042.198.077.358.107.458.33 1.226 1.893 2.809 2.901 3.348 1.77.947 6.132 1.074 7.335-.223.307-.331 1.323-.737 1.533-.614.209.123.967 1.144.967 1.97.023 1.415.754 2.712 2.311 4.009 2.948 2.453 5.235 3.042 7.547 1.957 1.202-.566 2.188-.787 2.188-.787s.983 1.255 1.043 1.683c.463 3.351 5.424 4.756 6.745 4.898.302.03.891-.1 1.49-.231.8-.176 1.616-.356 1.788-.162.337.38-5.637 10.259-6.462 11.509-7.854 11.792-23.136 19.009-41.838 19.764-12.146.495-27.075-2.901-40.023-9.08-8.278-3.986-15.612-8.868-23.466-15.707a370.333 370.333 0 0 0-3.514-2.995c-.566-.449-1.91-1.982-2.948-3.397-1.745-2.358-2.736-3.207-2.736-2.405 0 .354 1.132 2.523 2.43 4.669.518.85.849 1.439.731 1.345-.118-.095-.496 1.604-.849 3.773-1.156 6.958-3.066 13.821-5 18.089-1.062 2.312-3.096 4.038-3.71 4.509-2.264 1.722-5.653 2.496-10.346 2.967-5.944.59-14.693-.731-21.368-3.231-1.768-.66-6.32-2.57-6.627-2.783-.018-.018-.123-.696-.269-1.643-.04-.267-.085-.556-.132-.856-.849-5.826-2.028-28.254-2.028-38.631 0-4.293-.047-5.236-.33-5.236-.59 0-.826.566-1.085 2.594-.59 4.623-.472 28.749.165 33.82l.142 1.156-.802-.448c-1.227-.708-5.896-5.448-7.524-7.642-1.377-1.875-2.196-4.276-2.809-6.073a51.268 51.268 0 0 0-.398-1.141c-3.42-9.481-2.217-20.12 2.5-29.695 4.01-8.16 8.938-12.688 16.155-14.882 1.18-.353 2.217-.731 2.335-.825.448-.424-2.43-.212-4.01.283-5.14 1.58-10.518 5.896-14.173 11.415-5.142 7.735-7.453 19.15-5.826 28.89.378 2.312 1.91 7.311 2.335 7.665.038.038.232.445.525 1.06.811 1.702 2.382 4.998 3.508 6.487 1.368 1.863 5.495 5.92 7.217 7.17l1.084.778.166 1.91c.306 3.656.424 3.986 2.075 5.212 4.127 3.137 12.264 6.061 19.622 7.099 3.42.472 10.849.307 13.679-.306zm79.714-22.146c-13.702-1.203-30.258-7.736-42.239-17.83-5.047-4.269-11.603-12.57-14.198-17.169-.542-.943-.943-1.391-1.415-1.509-.495-.142-.07-.283 1.958-.613 8.561-1.463 16.886-5.024 23.608-10.094l.99-.731.283.683c.637 1.533 3.09 3.09 4.906 3.09.731 0 3.183-1.108 4.669-2.123l1.014-.684.826.826c.754.755.896.802 2.311.802 1.627 0 3.585-.731 4.67-1.769l.589-.542 1.675 1.108c.896.637 3.396 2.028 5.542 3.137a154.102 154.102 0 0 1 9.835 5.542l.518.33-.495.66c-.519.708-1.485 2.052-1.485 4.104 0 2.311 2.403 6.464 7.004 9.316 3.614 2.24 9.834 6.647 9.599 13.089-.029.778-.897 2.712-2.052 4.457-.755 1.109-2.854 2.76-4.764 3.727-3.255 1.627-8.986 2.57-13.349 2.193zM57.615 81.218c.636.142 1.06.355.966.449-.306.307-1.933.165-2.31-.212-.59-.566-.449-.967.377-1.132.424-.071 1.06-.425 1.415-.779.353-.353.66-.518.66-.4 0 .306-1.18 1.391-1.769 1.627-.377.165-.26.236.66.448zm9.386.378c.684-.377.542-.636-.26-.519-.801.118-.848.024-.33-.778.213-.306.33-.755.284-.99-.071-.307-.236-.165-.614.59-.283.542-.684.99-.872.99-.59 0-.637.471-.071.684.731.306 1.297.306 1.863.023zm-8.16-12.877c-.566.095-2.335.802-3.891 1.58-1.58.755-2.925 1.392-3.02 1.368-2.405-.26.944-4.268 7.029-8.372 5.825-3.939 9.764-6.014 13.42-7.075 2.287-.66 4.858-.755 5.589-.213.4.307.26.33-1.486.354-3.774 0-8.137 1.934-15.236 6.675-3.679 2.452-7.947 5.966-7.947 6.532 0 .118.684-.118 1.533-.495 1.816-.825 3.679-1.25 4.504-1.061.873.236.684.542-.495.707zm9.127 2.029c2.217-.449 2.311-.472 2.311-.708 0-.118-.849-.236-1.91-.283l-1.91-.07 1.769-2.005c.966-1.109 2.098-2.217 2.5-2.477.872-.566.92-.967.212-1.203l-.543-.165.59-.212c.33-.118.943-.165 1.368-.094.636.094.778.047.707-.283-.07-.33-.33-.401-1.486-.378-3.372.048-4.81.944-2.17 1.368.732.118 1.345.307 1.345.425 0 .094-.118.189-.26.189-.448 0-4.245 3.844-4.716 4.787-.731 1.392-.33 1.604 2.193 1.109zm15.566-9.151c-.684.047-.85.165-.802.495l.007.048c.026.175.042.275.003.305-.053.041-.205-.045-.562-.247l-.062-.035c-.448-.236-.495-.354-.235-.542.165-.142.613-.354.967-.425l.66-.165-.495-.519c-.26-.307-.401-.59-.33-.684.188-.189 2.5.07 2.83.33.141.118.353.095.495-.047.33-.33.778-.07.778.448 0 .283-.07.307-.283.095-.188-.19-.354-.19-.566-.024-.188.165-.33.165-.448-.024-.07-.118-.519-.236-.99-.236-.436 0-.641 0-.683.083-.038.075.056.216.234.483.377.588.354.59-.51.66h-.008zm-3.585-6.273c0-.307-.283-.85-.637-1.203l-.66-.66 3.537.14c1.958.095 4.175.307 4.953.52.778.188 1.674.33 2.005.33.495 0 .4-.094-.52-.59-1.603-.825-3.655-1.226-7.593-1.51-4.717-.33-7.1.119-6.651 1.298.07.236.448.354 1.014.354 1.156 0 3.042.684 3.68 1.32.683.684.872.684.872 0zm-11.51 62.45c1.911 2.453 4.435 5.236 5.614 6.179.707.566 1.32 1.038 1.368 1.038.023 0-.496-1.085-1.156-2.406-2.665-5.306-4.222-10.589-4.953-16.674-.165-1.344-.424-2.476-.707-2.948-.566-.943-.566-2.169.023-3.325.307-.613.472-1.391.472-2.24V96.1l-1.132 1.179c-1.108 1.155-2.17 1.627-2.17.92 0-.52 1.745-3.02 2.665-3.798.731-.613.826-.825 1.062-2.665.165-1.108.542-3.066.849-4.363.33-1.297.519-2.405.471-2.452-.165-.165-5.707 6.2-6.462 8.23-.165.446-.613 1.227-.967 1.698l-.613.788s.19 1.102.401 2.488c.213 1.4.312 2.362.401 3.219.12 1.147.219 2.105.542 3.67.378 1.934.755 3.609.85 3.727.07.141.377 1.226.683 2.429.66 2.665 1.77 5.306 2.76 6.603zm95.705 22.311-.495-.495s8.22-10.444 9.693-14.292c1.124-2.937 1.786-3.77 2.678-3.77.499 0 .907.114 1.095.397.331.495.649 1.109.224 3.208-.707 3.396-1.792 5.636-5.047 10.471-.754 1.108-1.721 2.335-2.146 2.759-.99.92-3.219 1.863-4.516 2.076-.825.118-1.061.07-1.486-.354z" fill="#00160A"/><path d="M229.449 163.156c2.934-7.994 2.49-9.697 1.981-9.864 0 0-1.121.637-1.616 1.981-.92 2.524-4.068 9.127-5.247 10.306-1.392 1.392-1.392 1.392-2.807 1.392s-5.496-2.131-6.052-4.232c-.889-3.361 2.939-15.036 3.033-15.697l-.636-.448c-.425.401-5.947 17.146-13.207 12.783-.832-.5-2.595-2.854-2.736-4.104-.786-3.632 2.82-16.332 3.433-18.941.549-2.334 3.406-4.502 6.92-4.502 5.401 0 4.676 4.721 7.095 6.385 1.072.737 2.833-.599 3.377-.701 3.042-.566 4.208.093 6.438 1.863 1.722 1.367 2.995 4.071 4.397 5.024.779.529 1.606-.194 1.876-.33 1.11-.557 3.491-.142 4.151.33.968.422 3.341 2.702 3.715 4.029 1.699 6.011-3.665 19.337-5.69 21.837-3.351 4.138-11.36.884-8.425-7.111z" fill="#fff"/><path fill-rule="evenodd" clip-rule="evenodd" d="M93.864 141.251c6.462 4.08 13.125 6.745 20.719 7.476 5.99.566 14.067-.212 19.869-2.099 4.882-1.58 11.485-5.957 15.896-9.66 8.561-7.169 13.961-18.368 16.32-30.255.33-1.674.833-5.883.81-10.058 0-4.858-2.138-18.134-8.617-25.79-13.361-15.788-35.325-22.9-53.784-16.824-6.659 2.193-13.748 6.164-19.102 11.353-6.745 6.58-11.721 15.542-13.702 24.692-2.075 9.67.624 21.226 5.317 30.707 3.75 7.547 9.93 16.425 16.273 20.458zm62.969-28.5c-4.434 13.325-15.99 23.277-30.518 26.296-2.217.448-3.75.613-6.863.661-2.193.07-4.386.047-4.834 0-10.165-1.227-17.9-4.977-25.023-12.099-3.113-3.137-4.434-4.835-6.368-8.184-3.042-5.306-4.67-10.731-5.165-17.263-1.698-22.382 14.316-41.037 36.862-42.97 8.844-.755 18.655 1.957 26.108 7.24 2.759 1.957 7.759 6.91 9.316 9.221.636.92 6.815 9.953 7.9 15.141 1.392 6.745.849 15.188-1.415 21.957z" fill="#fff"/><path fill-rule="evenodd" clip-rule="evenodd" d="M167.486 96.655c0 15.83-7.488 33.137-17.151 40.528-4.611 3.526-10.636 7.796-15.883 9.445-7.69 2.418-19.869 2.099-19.869 2.099s12.425-1.661 17.03-3.514c13.204-5.314 20.412-13.471 24.863-21.298 8.786-15.449 11.01-27.644 11.01-27.26z" fill="#E7EAEE"/><path fill-rule="evenodd" clip-rule="evenodd" d="M114.853 136.877c-6.297-.801-12.546-3.042-17.593-6.367-2.996-1.958-7.524-6.557-9.717-9.835-3.137-4.717-5.212-9.764-6.226-15.188-.731-3.939-.708-10 .023-13.514.755-3.585 1.722-6.32 3.444-9.787 2.004-4.01 4.127-6.958 7.31-10.141 5.425-5.425 11.722-8.868 19.222-10.519 2.429-.519 11.226-.943 11.532-.542.071.118.543.424 1.038.684.495.283 1.816 1.273 2.901 2.24 1.627 1.415 2.358 2.311 3.773 4.528.967 1.51 1.746 2.878 1.746 2.995 0 .26.754.732 1.179.732.589 0 .99-1.77 1.108-4.882.071-1.722.213-3.137.307-3.137.33 0 3.962 2.005 5.66 3.137 3.325 2.217 6.651 5.33 9.104 8.584 1.108 1.463 1.273 1.84 1.273 2.736 0 .826.236 1.462.967 2.736 1.84 3.207 3.278 7.24 4.151 11.697.566 2.996.566 8.656-.024 11.793-1.603 8.631-6.367 17.216-12.57 22.664-5.259 4.599-10.849 7.429-17.452 8.82-2.264.496-9.057.826-11.156.566zm-16.862-16.131c.212-.236.353-.59.283-.755-.022-.049-.317-.188-.75-.391-1.007-.474-2.758-1.298-3.518-2.156-3.019-3.443-4.127-6.014-4.81-11.32-.661-5.165-.106-8.657 1.084-14.269.58-2.737 2.124-4.998 3.085-6.405.653-.957 1.036-1.518.664-1.566-.92-.142-1.062-.07-2.029.849-2.075 1.981-3.018 3.561-4.009 6.603-1.533 4.764-1.83 17.639 1.204 23.443 3.034 5.804 8.253 6.58 8.796 5.967zm33.536-19.811c-.4 3.664-2.099 8.962-4.08 11.273-.919 1.085-4.296 2.948-7.146 2.571-2.752-.364-4.905-1.651-6.745-4.41-1.58-2.382-2.396-5.273-2.948-8.915-.953-6.288 3.208-13.608 5-15.424 1.816-1.863 3.113-2.523 4.764-2.547 1.604 0 2.641.354 4.269 1.51 2.971 2.075 7.665 8.823 6.886 15.942zM99.736 81.431c.472-.542.542-.802.401-1.816-.094-.943-.283-1.32-.778-1.721-.873-.708-1.958-.708-2.76.047-.566.542-.636.73-.566 2.028.071 1.391.118 1.486.896 1.91 1.038.566 2.052.401 2.807-.448zm14.716-14.551c-4.245 3.042-6.084 4.292-7.995 5.471-1.509.944-1.981.967-1.981.118 0-.448.331-.943 1.18-1.721l1.179-1.085-2.288-.307c-2.571-.33-5.07-1.038-5.613-1.58-.896-.92-.118-1.132 2.429-.66 1.132.188 3.326.424 4.882.471l2.83.118 2.052-1.486c4.505-3.254 9.174-5.094 11.415-4.528 1.391.33 1.226.708-.354.896-1.816.213-2.924.826-7.736 4.293z" fill="#fff"/><path d="M120.513 111.548c0-.118.142-.236.331-.236.188 0 .424.118.495.236.071.142-.071.236-.33.236-.283 0-.496-.094-.496-.236zM121.928 111.336c0-.26.59-.495 1.25-.495.519.023.519.023.071.353-.519.401-1.321.472-1.321.142zM118.273 110.723c-.071-.189-.165-.519-.236-.708-.071-.236.047-.354.354-.354.259 0 .472.142.472.331 0 .188.07.495.141.707.095.259.024.377-.236.377-.212 0-.448-.165-.495-.353zM119.523 110.133c-.118-.707.141-.943.991-.943.259 0 .471.236.566.636.188.684-.118 1.015-.944 1.015-.377 0-.542-.166-.613-.708zM117.117 110.251c-.448-.354-.448-.354.047-.354.307 0 .519.142.519.354 0 .424 0 .424-.566 0zM121.858 110.227c-.307-.306-.165-1.226.212-1.367.684-.26.991-.142 1.132.471.094.354.142.661.094.684-.188.212-1.297.354-1.438.212zM123.957 109.732c-.071-.071-.142-.377-.142-.66 0-.401.189-.566.755-.684.495-.095.802-.047.943.141.236.378.236.849.024.967-.425.236-1.415.378-1.58.236zM116.032 109.001c0-.283.213-.519.519-.59.614-.165.59-.188.708.425.047.354-.071.495-.566.542-.519.071-.661-.023-.661-.377zM117.825 109.025c-.33-.354-.118-1.015.33-1.015.307 0 .472.166.472.449 0 .448-.543.825-.802.566zM119.24 108.317c-.189-.448.212-.778.991-.778.353 0 .518.141.518.448 0 .259-.212.495-.518.589-.779.189-.826.189-.991-.259zM126.056 108.246c.071-.118.188-.236.259-.236.071 0 .047.118-.023.236-.071.142-.189.236-.26.236-.071 0-.047-.094.024-.236zM121.362 107.845c-.188-.471.048-.707.802-.825.425-.047.613.047.661.377.165.779-1.18 1.203-1.463.448zM115.702 107.444c-.212-.778-.165-.849.448-.849.331 0 .59.095.59.213s.071.377.142.566c.07.236-.071.377-.472.448-.448.094-.613 0-.708-.378zM123.579 107.185c0-.424.165-.613.614-.731.66-.165 1.037.165 1.037.92 0 .306-.188.401-.825.401-.731 0-.826-.071-.826-.59zM114.995 107.185c-.071-.189-.024-.354.094-.354.142 0 .236.165.236.354 0 .189-.047.354-.094.354s-.142-.165-.236-.354zM117.377 107.374c-.33-.307-.142-.967.283-1.085.259-.071.519-.047.59.023.283.26.117.944-.236 1.085-.448.165-.448.165-.637-.023zM125.796 107.209c-.259-.684.024-1.203.684-1.274.496-.071.637.024.637.401 0 .778-.259 1.203-.731 1.203-.259 0-.519-.142-.59-.33zM119.028 106.902c-.283-.259-.189-.731.212-.873.448-.165 1.391.307 1.132.566-.33.283-1.179.496-1.344.307zM121.08 106.312c-.213-.33.542-.896 1.155-.896.283 0 .401.142.354.401-.094.472-1.297.849-1.509.495zM114.617 106.147c0-.118-.07-.377-.141-.589-.071-.213-.047-.378.094-.378.307 0 .543.897.26 1.085-.118.071-.213.024-.213-.118zM115.254 105.605c-.141-.519.142-.896.684-.896.307 0 .613.919.425 1.226-.26.401-.991.165-1.109-.33zM116.905 105.723c-.354-.354-.141-1.203.33-1.321.354-.094.543.024.731.448.142.307.213.613.166.661-.236.212-1.085.377-1.227.212zM123.273 105.723c-.307-.307-.165-.495.542-.755.59-.189.755-.165.873.118.212.566-.967 1.108-1.415.637zM125.348 105.18c-.236-.377.095-.707.708-.707.731 0 .943.613.283.802-.708.188-.826.165-.991-.095zM127.353 104.614c0-.353.424-.731.613-.542.165.165-.165.873-.401.873-.118 0-.212-.142-.212-.331zM114.311 104.308c-.094-.071-.165-.378-.142-.637 0-.448.024-.448.236.071.236.566.189.849-.094.566zM114.759 103.954c-.212-.825-.189-.896.425-.896.683 0 1.108.872.589 1.203-.542.33-.849.235-1.014-.307zM122.872 104.426c0-.071.118-.448.259-.873.33-.943 1.062-.99 1.227-.071.07.354.094.661.07.684-.118.142-1.556.354-1.556.26zM116.433 103.836c-.094-.071-.165-.354-.165-.613 0-.377.071-.401.354-.165.189.165.354.448.354.613 0 .354-.283.448-.543.165zM124.924 103.364c-.142-.731.165-1.061.896-.967.354.048.472.26.472.779 0 .589-.095.731-.614.778-.518.071-.636-.047-.754-.59zM127.235 103.459c-.307-.944-.212-1.227.425-1.297.566-.071.636 0 .636.613 0 .519-.141.731-.495.825-.259.071-.519 0-.566-.141zM113.957 102.114c0-.448.047-.636.118-.4a2.43 2.43 0 0 1 0 .825c-.071.212-.118.024-.118-.425zM114.547 102.421c-.307-.283-.165-1.203.212-1.344.542-.213.802.047.802.825 0 .495-.118.684-.425.684-.236 0-.519-.071-.589-.165zM115.962 101.784c-.094-.353-.142-.731-.047-.802.236-.235.377.142.306.826l-.07.66-.189-.684zM123.579 101.619c0-.259.118-.401.236-.33.142.071.236.307.236.495 0 .189-.094.33-.236.33-.118 0-.236-.212-.236-.495zM124.641 101.926c-.331-.354-.071-.991.471-1.132.684-.165.708-.165.92.519.142.424.047.518-.566.613-.377.071-.755.047-.825 0zM126.811 101.478c-.26-.236-.189-1.014.07-1.014.142 0 .236-.095.236-.236 0-.118-.141-.236-.33-.236-.401 0-.731-1.156-.401-1.486.425-.424.896.024 1.179 1.18.165.612.33 1.32.401 1.556.094.306 0 .401-.448.401-.307 0-.637-.071-.707-.165zM128.084 100.228c-.165-.708-.59-2.123-.896-3.16-.472-1.51-.519-1.887-.26-2.052.165-.118.378-.213.448-.213.26 0 1.203 4.835 1.109 5.778l-.071.944-.33-1.297zM113.721 100.11c0-.378.047-.52.118-.283.047.212.047.542 0 .707-.071.142-.118-.023-.118-.424zM114.193 100.063c.094-.826.778-1.014.967-.26.165.613.212.543-.495.778-.496.142-.543.095-.472-.518zM124.145 99.85c-.188-.684.213-1.084.967-.99.566.07.779 1.085.307 1.391-.59.378-1.132.213-1.274-.4zM115.561 99.662c0-.401.118-.614.377-.614.236 0 .33.166.283.52-.118.754-.66.825-.66.094zM113.462 98.671c0-.26.071-.33.141-.141.071.165.048.377-.023.448-.071.094-.142-.047-.118-.307zM113.91 98.6c0-.353.141-.495.495-.495.33 0 .448.118.401.401-.118.613-.896.684-.896.094zM115.207 98.388c-.165-.424-.165-.424.542-.613.425-.142.519-.07.519.283 0 .566-.849.849-1.061.33zM123.745 98.058c-.166-.59.141-.896.966-.896.401 0 .519.141.519.59 0 .353-.141.589-.33.589-.189 0-.495.07-.684.142-.212.07-.377-.071-.471-.425zM125.796 97.516c-.188-.472.095-.826.637-.826.33 0 .448.165.448.59 0 .424-.118.59-.472.59-.259 0-.542-.166-.613-.355zM113.674 97.185c0-.495.543-1.06.778-.802.095.071.165.401.165.708 0 .377-.141.543-.471.543-.307 0-.472-.166-.472-.449zM114.971 96.902c-.188-.59.024-.849.826-.967.731-.094.967.684.33 1.156-.613.448-.991.377-1.156-.189zM123.509 96.76c-.166-.14-.236-1.013-.095-1.013.024 0 .378-.095.802-.213.708-.212.755-.188.731.449-.023.471-.165.707-.519.801-.636.165-.731.165-.919-.023zM122.636 96.218c0-.165.071-.235.165-.165a.283.283 0 0 1 0 .33c-.094.071-.165 0-.165-.165zM125.278 95.841c.07-.4.801-.99.967-.802.07.07.188.354.259.66.165.472.094.52-.566.52-.566 0-.731-.095-.66-.378zM113.91 95.817c0-.117.118-.353.236-.542.188-.283.236-.26.236.189 0 .283-.095.519-.236.519-.118 0-.236-.071-.236-.166zM114.617 95.299c0-.66.496-.873.873-.378.236.354.236.472 0 .637-.495.307-.873.212-.873-.26zM121.787 94.992c-.425-.472-.425-.495-.024-.354.236.095.543.165.661.165s.212.165.212.354c0 .495-.33.448-.849-.165zM116.717 94.968c-1.015-.778-1.156-2.523-.213-2.523.637 0 1.227.99 1.132 1.91-.07.85-.353 1.038-.919.613zM123.178 95.11a.285.285 0 0 1 .331 0c.07.094 0 .165-.165.165-.166 0-.236-.07-.166-.165zM126.74 94.19c.07-.212.141-.424.141-.471 0-.048.118-.095.236-.095.141 0 .236.212.236.472 0 .283-.165.471-.378.471-.259 0-.33-.117-.235-.377zM114.382 94.12c0-.543.495-1.44.778-1.44.495 0 .141 1.51-.377 1.604-.213.048-.401-.023-.401-.165zM119.688 93.86l-.708-.165.637-.165c.661-.189 1.132-.047 1.132.354 0 .235-.023.235-1.061-.024zM118.863 92.728c0-.967.542-1.108 1.037-.26.33.566.354.684.047.684-.188 0-.495.071-.707.142-.283.118-.377-.024-.377-.566zM122.966 93.058c-1.061-.472-1.745-1.722-1.745-3.207 0-1.062.094-1.321.731-1.91.401-.378.802-.685.92-.685.519 0 2.429 1.816 3.066 2.948l.731 1.298-.778.825c-.897.943-1.887 1.203-2.925.731zM118.037 92.445c-.071-.118-.023-.236.094-.236.142 0 .26.118.26.236 0 .141-.047.236-.094.236-.071 0-.189-.095-.26-.236zM114.948 92.068c.07-.213.141-.425.141-.472 0-.047.212-.094.472-.094.589 0 .613.377.023.707-.636.33-.802.307-.636-.141zM116.811 91.785c-.543-.071-.708-.378-.354-.59.094-.07.519-.189.943-.283.637-.142.755-.094.755.307 0 .495-.495.707-1.344.566zM118.627 90.983c0-.283.023-.448.07-.401.024.047.213.283.378.519.283.33.259.4-.071.4-.236 0-.377-.188-.377-.518zM115.325 90.818c0-.142.118-.307.236-.378.141-.07.236.024.236.213 0 .212-.095.377-.236.377-.118 0-.236-.094-.236-.212zM116.198 90.464c-.189-.472 1.485-.99 1.768-.543.213.378 0 .543-.896.731-.542.118-.778.071-.872-.188zM118.415 89.71c0-.26.07-.331.141-.142.071.165.047.377-.024.448-.07.094-.141-.047-.117-.307zM116.41 89.332c.283-.519 1.108-1.368 1.321-1.368.235 0 .259 1.108.023 1.25a10.54 10.54 0 0 1-.849.26c-.519.117-.637.094-.495-.142zM118.297 88.79c-.26-.708-.142-1.015.424-1.11.59-.117.59-.117.212.614-.471.944-.448.944-.636.495zM118.155 87.374c0-.047.472-.377 1.061-.707.708-.425 1.203-.566 1.557-.472.424.142.306.236-.731.731-1.156.52-1.887.708-1.887.448zM131.244 66.479c-.636-.92-1.981-2.406-2.948-3.302-.967-.896-1.603-1.627-1.415-1.627.519 0 4.481 1.085 5.472 1.51.825.353.849.4.637 1.131-.118.425-.213 1.486-.213 2.359 0 .896-.07 1.603-.165 1.603-.118 0-.707-.754-1.368-1.674zM83.25 137.915c-.966-.495-1.179-.778-2.405-3.207-1.769-3.444-1.816-4.245-.142-2.288.66.778 2.194 2.382 3.397 3.561 2.051 1.981 2.146 2.123 1.462 2.028-.496-.07-.684-.023-.566.166.283.424-.614.306-1.745-.26z" fill="#fff"/><path fill-rule="evenodd" clip-rule="evenodd" d="M122.775 180.883a.914.914 0 0 1 .487-1.196l.509-.215c4.94-2.114 7.775-3.384 9.702-5.4 1.927-2.016 2.157-4.978 2.519-6.78.1-.494 1.219.374 1.714.473.495.1.815.581.716 1.076-.436 2.166-1.608 4.232-3.494 6.193-1.881 1.954-5.522 4.049-10.957 6.337a.913.913 0 0 1-1.196-.488zM145.115 86.783a.913.913 0 0 1 1.252.317 28.178 28.178 0 0 1 3.968 14.463c0 15.637-12.677 28.313-28.314 28.313-4.155 0-8.185-.896-11.875-2.604-.458-.211-2.188-1.898-.446-1.212 1.742.686 8.481 2.225 12.37 2.225 14.628 0 24.977-12.094 24.977-26.722 0-4.83-1.932-9.118-2.249-13.528-.037-.512-.116-.994.317-1.252zM54.66 155.908c.324-.388.9-1.171 1.287-.848 1.59 1.324 3.287 2.859 5.102 3.155 1.888.308 4.129.308 6.718-.005a.913.913 0 1 1 .22 1.813c-2.75.333-5.16.333-7.232-.005-2.147-.35-4.143-1.296-5.977-2.824a.913.913 0 0 1-.117-1.286z" fill="#00160A"/><path d="M74.053 123.953c-1.18-.943-3.703-3.726-5.613-6.179-.99-1.297-2.1-3.938-2.76-6.603-.306-1.203-.613-2.288-.684-2.429-.094-.118-.471-1.793-.849-3.727-.566-2.735-.446-3.617-.943-6.89-.21-1.385-.4-2.487-.4-2.487l.612-.788c.354-.471.802-1.252.967-1.697.755-2.031 6.297-8.397 6.462-8.231.048.047-.141 1.155-.471 2.452a63.967 63.967 0 0 0-.85 4.363c-.235 1.84-.33 2.052-1.06 2.665-.92.779-2.666 3.279-2.666 3.797 0 .708 1.062.236 2.17-.92l1.132-1.178v1.297c0 .849-.165 1.627-.471 2.24-.59 1.156-.59 2.382-.024 3.325.283.472.542 1.604.707 2.948.732 6.085 2.288 11.368 4.953 16.674.66 1.321 1.18 2.406 1.156 2.406-.047 0-.66-.472-1.368-1.038z" fill="#fff"/><path fill-rule="evenodd" clip-rule="evenodd" d="m172.187 138.505 1.698.754c.352.163 4.236 2.029 8.902 4.271 7.522 3.615 17.076 8.205 17.134 8.205.095 0 .537-1.023.637-2.216.236-2.571 1.109-6.062 2.123-8.491.471-1.085.849-2.44.849-2.558 0-.054-.384-.209-1.011-.462a50.8 50.8 0 0 1-3.046-1.319c-5.943-2.854-17.57-8.679-19.008-9.552-1.415-.825-1.699-.896-1.699-.354 0 .708-1.438 3.986-2.547 5.755a78.01 78.01 0 0 1-2.57 3.868l-1.462 2.099zm27.334 8.985c.676.392-.496.967-.779 1.062-1.666.141-3.628-.172-5.235-1.109-.841-.596-7.459-4.272-11.849-6.711-2.006-1.115-3.548-1.971-3.858-2.156-.991-.59-1.934-1.227-2.099-1.416-.496-.636-.024-.919 1.367-.801.837.071 20.992 10.285 22.453 11.131z" fill="#fff"/><path d="M155.253 140.627c-.613-.212-1.274-.684-1.698-1.226l-.708-.873 2.5-2.476c3.845-3.773 6.675-7.897 9.222-12.496.849-1.533 3.372-7.716 3.679-8.4.472-.99.825-1.367 1.839-1.933 1.203-.708 2.571-.944 3.161-.543 1.132.755 1.132 3.137 0 7.24-1.25 4.505-2.925 7.736-6.392 12.382-.542.708-1.556 2.099-2.287 3.066-1.958 2.594-3.231 3.844-4.953 4.811-1.698.944-2.689 1.062-4.363.448zM164.144 140.085l-.495-.495s8.22-10.444 9.693-14.292c1.124-2.937 1.786-3.77 2.678-3.77.499 0 .907.114 1.095.397.331.495.649 1.109.224 3.208-.707 3.396-1.792 5.636-5.047 10.471-.754 1.108-1.721 2.335-2.146 2.759-.99.92-3.219 1.863-4.516 2.076-.825.118-1.061.07-1.486-.354z" fill="#fff"/><path fill-rule="evenodd" clip-rule="evenodd" d="M177.952 129.164c.475-1.088.814-2.037.814-2.381 0-.542.283-.471 1.698.354 1.439.873 13.066 6.698 19.009 9.552 2.217 1.061 4.057 1.663 4.057 1.781 0 .118-26.082-8.152-25.578-9.306zM97.26 130.51c-2.996-1.958-7.524-6.557-9.717-9.835-3.137-4.717-5.212-9.764-6.226-15.188-.731-3.939-.708-10 .023-13.514.755-3.585 1.722-6.32 3.444-9.787 2.004-4.01 4.127-6.958 7.31-10.141 3.123-3.123-10.754 9.79-7.31 32.891 2.759 19.359 14.618 26.985 12.476 25.574z" fill="#E7EAEE"/></svg>